<mxfile host="app.diagrams.net" modified="2022-07-17T23:01:22.036Z" agent="5.0 (Macintosh; Intel Mac OS X 10_15_7) AppleWebKit/537.36 (KHTML, like Gecko) Chrome/103.0.5060.114 Safari/537.36" etag="-zJjRnCSSp-AUOvZGuV4" version="20.1.1" type="github">
  <diagram id="FHZckZIoKIEDhqi4HK1J" name="Page-1">
    <mxGraphModel dx="1186" dy="800" grid="1" gridSize="10" guides="1" tooltips="1" connect="1" arrows="1" fold="1" page="1" pageScale="1" pageWidth="850" pageHeight="1100" math="0" shadow="0">
      <root>
        <mxCell id="0" />
        <mxCell id="1" parent="0" />
        <mxCell id="kRLWBHvCbc55taYyrKtp-24" value="" style="rounded=0;whiteSpace=wrap;html=1;" vertex="1" parent="1">
          <mxGeometry x="160" y="441" width="640" height="249" as="geometry" />
        </mxCell>
        <mxCell id="kRLWBHvCbc55taYyrKtp-22" value="" style="rounded=0;whiteSpace=wrap;html=1;" vertex="1" parent="1">
          <mxGeometry x="160" y="160" width="640" height="270" as="geometry" />
        </mxCell>
        <mxCell id="kRLWBHvCbc55taYyrKtp-12" style="edgeStyle=orthogonalEdgeStyle;rounded=0;orthogonalLoop=1;jettySize=auto;html=1;" edge="1" parent="1" source="kRLWBHvCbc55taYyrKtp-2" target="kRLWBHvCbc55taYyrKtp-3">
          <mxGeometry relative="1" as="geometry" />
        </mxCell>
        <mxCell id="kRLWBHvCbc55taYyrKtp-2" value="Mobile App" style="sketch=0;outlineConnect=0;fontColor=#232F3E;gradientColor=none;strokeColor=#232F3E;fillColor=#ffffff;dashed=0;verticalLabelPosition=bottom;verticalAlign=top;align=center;html=1;fontSize=12;fontStyle=0;aspect=fixed;shape=mxgraph.aws4.resourceIcon;resIcon=mxgraph.aws4.mobile_client;" vertex="1" parent="1">
          <mxGeometry x="40" y="320" width="60" height="60" as="geometry" />
        </mxCell>
        <mxCell id="kRLWBHvCbc55taYyrKtp-13" style="edgeStyle=orthogonalEdgeStyle;rounded=0;orthogonalLoop=1;jettySize=auto;html=1;exitX=0.5;exitY=0;exitDx=0;exitDy=0;entryX=0;entryY=0.5;entryDx=0;entryDy=0;" edge="1" parent="1" source="kRLWBHvCbc55taYyrKtp-3" target="kRLWBHvCbc55taYyrKtp-7">
          <mxGeometry relative="1" as="geometry" />
        </mxCell>
        <mxCell id="kRLWBHvCbc55taYyrKtp-14" style="edgeStyle=orthogonalEdgeStyle;rounded=0;orthogonalLoop=1;jettySize=auto;html=1;exitX=1;exitY=0.5;exitDx=0;exitDy=0;entryX=0;entryY=0.5;entryDx=0;entryDy=0;" edge="1" parent="1" source="kRLWBHvCbc55taYyrKtp-3" target="kRLWBHvCbc55taYyrKtp-4">
          <mxGeometry relative="1" as="geometry" />
        </mxCell>
        <mxCell id="kRLWBHvCbc55taYyrKtp-3" value="API Gateway" style="whiteSpace=wrap;html=1;aspect=fixed;fillColor=#dae8fc;strokeColor=#6c8ebf;" vertex="1" parent="1">
          <mxGeometry x="240" y="310" width="80" height="80" as="geometry" />
        </mxCell>
        <mxCell id="kRLWBHvCbc55taYyrKtp-15" style="edgeStyle=orthogonalEdgeStyle;rounded=0;orthogonalLoop=1;jettySize=auto;html=1;exitX=0.5;exitY=1;exitDx=0;exitDy=0;entryX=0.5;entryY=0;entryDx=0;entryDy=0;" edge="1" parent="1" source="kRLWBHvCbc55taYyrKtp-4" target="kRLWBHvCbc55taYyrKtp-9">
          <mxGeometry relative="1" as="geometry" />
        </mxCell>
        <mxCell id="kRLWBHvCbc55taYyrKtp-17" style="edgeStyle=orthogonalEdgeStyle;rounded=0;orthogonalLoop=1;jettySize=auto;html=1;exitX=1;exitY=0.5;exitDx=0;exitDy=0;" edge="1" parent="1" source="kRLWBHvCbc55taYyrKtp-4" target="kRLWBHvCbc55taYyrKtp-5">
          <mxGeometry relative="1" as="geometry" />
        </mxCell>
        <mxCell id="kRLWBHvCbc55taYyrKtp-4" value="Ordering Service" style="whiteSpace=wrap;html=1;aspect=fixed;fillColor=#dae8fc;strokeColor=#6c8ebf;" vertex="1" parent="1">
          <mxGeometry x="395" y="310" width="80" height="80" as="geometry" />
        </mxCell>
        <mxCell id="kRLWBHvCbc55taYyrKtp-18" style="edgeStyle=orthogonalEdgeStyle;rounded=0;orthogonalLoop=1;jettySize=auto;html=1;exitX=0.5;exitY=1;exitDx=0;exitDy=0;entryX=0.5;entryY=0;entryDx=0;entryDy=0;" edge="1" parent="1" source="kRLWBHvCbc55taYyrKtp-5" target="kRLWBHvCbc55taYyrKtp-6">
          <mxGeometry relative="1" as="geometry" />
        </mxCell>
        <mxCell id="kRLWBHvCbc55taYyrKtp-5" value="Promotions and Discounts Service" style="whiteSpace=wrap;html=1;aspect=fixed;fillColor=#d5e8d4;strokeColor=#82b366;" vertex="1" parent="1">
          <mxGeometry x="550" y="310" width="80" height="80" as="geometry" />
        </mxCell>
        <mxCell id="kRLWBHvCbc55taYyrKtp-19" style="edgeStyle=orthogonalEdgeStyle;rounded=0;orthogonalLoop=1;jettySize=auto;html=1;exitX=0.5;exitY=1;exitDx=0;exitDy=0;entryX=0.5;entryY=0;entryDx=0;entryDy=0;" edge="1" parent="1" source="kRLWBHvCbc55taYyrKtp-6" target="kRLWBHvCbc55taYyrKtp-11">
          <mxGeometry relative="1" as="geometry" />
        </mxCell>
        <mxCell id="kRLWBHvCbc55taYyrKtp-6" value="3rd Party Marketing Service" style="whiteSpace=wrap;html=1;aspect=fixed;fillColor=#fff2cc;strokeColor=#d6b656;" vertex="1" parent="1">
          <mxGeometry x="550" y="460" width="80" height="80" as="geometry" />
        </mxCell>
        <mxCell id="kRLWBHvCbc55taYyrKtp-7" value="Customer Service" style="whiteSpace=wrap;html=1;aspect=fixed;fillColor=#dae8fc;strokeColor=#6c8ebf;" vertex="1" parent="1">
          <mxGeometry x="395" y="190" width="80" height="80" as="geometry" />
        </mxCell>
        <mxCell id="kRLWBHvCbc55taYyrKtp-20" style="edgeStyle=orthogonalEdgeStyle;rounded=0;orthogonalLoop=1;jettySize=auto;html=1;exitX=0;exitY=0.5;exitDx=0;exitDy=0;" edge="1" parent="1" source="kRLWBHvCbc55taYyrKtp-8" target="kRLWBHvCbc55taYyrKtp-2">
          <mxGeometry relative="1" as="geometry" />
        </mxCell>
        <mxCell id="kRLWBHvCbc55taYyrKtp-21" style="edgeStyle=orthogonalEdgeStyle;rounded=0;orthogonalLoop=1;jettySize=auto;html=1;exitX=0.5;exitY=1;exitDx=0;exitDy=0;entryX=1;entryY=0.5;entryDx=0;entryDy=0;" edge="1" parent="1" source="kRLWBHvCbc55taYyrKtp-8" target="kRLWBHvCbc55taYyrKtp-7">
          <mxGeometry relative="1" as="geometry" />
        </mxCell>
        <mxCell id="kRLWBHvCbc55taYyrKtp-8" value="3rd Party Loyalty Service" style="whiteSpace=wrap;html=1;aspect=fixed;fillColor=#fff2cc;strokeColor=#d6b656;" vertex="1" parent="1">
          <mxGeometry x="670" y="40" width="80" height="80" as="geometry" />
        </mxCell>
        <mxCell id="kRLWBHvCbc55taYyrKtp-9" value="Stores" style="whiteSpace=wrap;html=1;aspect=fixed;dashed=1;" vertex="1" parent="1">
          <mxGeometry x="395" y="525.5" width="80" height="80" as="geometry" />
        </mxCell>
        <mxCell id="kRLWBHvCbc55taYyrKtp-11" value="Store Point of Sale" style="whiteSpace=wrap;html=1;aspect=fixed;fillColor=#fff2cc;strokeColor=#d6b656;" vertex="1" parent="1">
          <mxGeometry x="550" y="600" width="80" height="80" as="geometry" />
        </mxCell>
      </root>
    </mxGraphModel>
  </diagram>
</mxfile>
